<svg width="20" height="20" viewBox="0 0 20 20" fill="none" xmlns="http://www.w3.org/2000/svg">
<path fill-rule="evenodd" clip-rule="evenodd" d="M16 0H4C1.79086 0 0 1.79086 0 4V16C0 17.8642 1.27532 19.4306 3.00111 19.8743C3.32039 19.9563 3.6551 20 4 20H16C16.3449 20 16.6796 19.9563 16.9989 19.8743C18.7247 19.4306 20 17.8642 20 16V4C20 1.79086 18.2091 0 16 0ZM13 7C13 5.34315 11.6569 4 10 4C8.34315 4 7 5.34315 7 7C7 8.65685 8.34315 10 10 10C11.6569 10 13 8.65685 13 7ZM5.15257 15.0155C5.70085 13.2824 7.66322 12 10 12C12.3368 12 14.2991 13.2824 14.8474 15.0155C15.014 15.5421 14.5523 16 14 16H6C5.44772 16 4.98599 15.5421 5.15257 15.0155Z" fill="white"/>
</svg>
