<svg width="20" height="21" viewBox="0 0 20 21" fill="none" xmlns="http://www.w3.org/2000/svg">
<path fill-rule="evenodd" clip-rule="evenodd" d="M12.3402 6.10776C11.8424 5.84165 11.3044 5.66328 10.75 5.57855V0.514102C12.1344 0.618218 13.4848 1.00972 14.714 1.66673C16.1643 2.44194 17.4011 3.56288 18.3147 4.93024C19.2284 6.2976 19.7907 7.86918 19.9519 9.50577C19.9594 9.58247 19.9661 9.65919 19.9719 9.73594H14.9074C14.7978 9.01866 14.5321 8.33299 14.1277 7.72788C13.6742 7.04908 13.0602 6.4926 12.3402 6.10776ZM4.4443 2.17124C5.88019 1.21181 7.53634 0.642974 9.25 0.514099V5.57855C8.53465 5.68788 7.84869 5.95281 7.24195 6.35822C6.42556 6.90371 5.78927 7.67904 5.41353 8.58616C5.03778 9.49328 4.93947 10.4914 5.13102 11.4544C5.27339 12.1701 5.57112 12.8425 5.99965 13.4257L2.41854 17.0068C1.29792 15.7039 0.529062 14.1306 0.192152 12.4368C-0.193701 10.497 0.00433284 8.48637 0.761209 6.65911C1.51809 4.83184 2.79981 3.27006 4.4443 2.17124ZM3.47921 18.0674C4.53174 18.9727 5.76345 19.6508 7.09718 20.0553C8.67088 20.5327 10.338 20.6146 11.9509 20.2938C13.5488 19.9759 15.0446 19.2726 16.3084 18.2451L11.8014 15.112C11.5323 15.2167 11.2537 15.2982 10.9685 15.3549C10.1678 15.5142 9.34019 15.4735 8.55895 15.2365C8.01876 15.0727 7.51228 14.8185 7.06032 14.4863L3.47921 18.0674ZM14.5865 12.3857C14.7399 12.0154 14.8473 11.6292 14.9074 11.2359H19.9719C19.8926 12.2903 19.6462 13.3292 19.2388 14.3128C18.7999 15.3724 18.1835 16.3451 17.4194 17.1906L13.2155 14.2682C13.815 13.7586 14.2851 13.1134 14.5865 12.3857Z" fill="white"/>
</svg>
