<svg width="19" height="21" viewBox="0 0 19 21" fill="none" xmlns="http://www.w3.org/2000/svg">
<path fill-rule="evenodd" clip-rule="evenodd" d="M8.45108 2.00917C10.4581 0.00215091 13.7121 0.00215064 15.7191 2.00917C17.7262 4.01619 17.7262 7.27022 15.7191 9.27724L9.65673 15.3397C8.48676 16.5096 6.58985 16.5096 5.41987 15.3397C4.2499 14.1697 4.24989 12.2728 5.41987 11.1028L11.4823 5.04038C11.8152 4.70745 12.355 4.70745 12.6879 5.04038C13.0209 5.37331 13.0209 5.9131 12.6879 6.24603L6.62553 12.3084C6.12141 12.8126 6.12141 13.6299 6.62553 14.134C7.12964 14.6381 7.94697 14.6381 8.45108 14.134L14.5135 8.07158C15.8546 6.73043 15.8546 4.55598 14.5135 3.21483C13.1723 1.87367 10.9979 1.87367 9.65673 3.21483L3.59432 9.27724C1.41612 11.4554 1.41612 14.987 3.59432 17.1652C5.77252 19.3434 9.30408 19.3434 11.4823 17.1652L17.5447 11.1028C17.8776 10.7699 18.4174 10.7699 18.7504 11.1028C19.0833 11.4357 19.0833 11.9755 18.7504 12.3084L12.6879 18.3709C9.84387 21.2149 5.23273 21.2149 2.38867 18.3709C-0.455399 15.5268 -0.455403 10.9157 2.38866 8.07159L8.45108 2.00917Z" fill="#808080"/>
</svg>
