<svg width="15" height="15" viewBox="0 0 15 15" fill="none" xmlns="http://www.w3.org/2000/svg">
<path d="M13.15 7.29101C13.1499 6.04283 12.7328 4.83047 11.9649 3.84645C11.197 2.86243 10.1224 2.16315 8.91163 1.85967C7.70091 1.55619 6.4235 1.66589 5.28224 2.17136C4.14099 2.67683 3.20132 3.54909 2.61245 4.64963C2.02358 5.75017 1.81926 7.01589 2.03194 8.24582C2.24463 9.47575 2.86212 10.5994 3.78636 11.4383C4.7106 12.2771 5.88862 12.7832 7.13334 12.8761C8.37806 12.969 9.61813 12.6433 10.6566 11.9509L11.4336 13.1157C10.2844 13.8841 8.93251 14.2932 7.55004 14.291C3.68395 14.291 0.550049 11.1571 0.550049 7.29101C0.550049 3.42491 3.68395 0.291016 7.55004 0.291016C11.4161 0.291016 14.55 3.42491 14.55 7.29101V8.34101C14.5501 8.86514 14.3821 9.37547 14.0707 9.79705C13.7593 10.2186 13.3209 10.5292 12.8199 10.6832C12.3189 10.8372 11.7817 10.8265 11.2873 10.6526C10.7928 10.4787 10.3672 10.1509 10.0728 9.71721C9.60564 10.203 9.00811 10.5436 8.35204 10.698C7.69597 10.8524 7.00927 10.8141 6.37444 10.5877C5.73961 10.3613 5.18365 9.95641 4.77336 9.42168C4.36307 8.88695 4.1159 8.24513 4.06156 7.57332C4.00721 6.90152 4.14799 6.22831 4.46698 5.63458C4.78598 5.04085 5.26962 4.55186 5.8598 4.22634C6.44999 3.90083 7.1216 3.75265 7.79396 3.7996C8.46632 3.84655 9.11083 4.08664 9.65004 4.49101H11.05V8.34101C11.05 8.61949 11.1607 8.88656 11.3576 9.08347C11.5545 9.28039 11.8216 9.39101 12.1 9.39101C12.3785 9.39101 12.6456 9.28039 12.8425 9.08347C13.0394 8.88656 13.15 8.61949 13.15 8.34101V7.29101ZM7.55004 5.19101C6.99309 5.19101 6.45895 5.41226 6.06512 5.80609C5.67129 6.19991 5.45005 6.73406 5.45005 7.29101C5.45005 7.84796 5.67129 8.38211 6.06512 8.77593C6.45895 9.16976 6.99309 9.39101 7.55004 9.39101C8.107 9.39101 8.64114 9.16976 9.03497 8.77593C9.42879 8.38211 9.65004 7.84796 9.65004 7.29101C9.65004 6.73406 9.42879 6.19991 9.03497 5.80609C8.64114 5.41226 8.107 5.19101 7.55004 5.19101Z" fill="#1E1E1E"/>
</svg>
