<svg width="32" height="32" viewBox="0 0 32 32" fill="none" xmlns="http://www.w3.org/2000/svg">
<rect x="0.446167" y="0.669281" width="30.6693" height="30.6693" rx="15.3346" fill="#1C9C4D" fill-opacity="0.25"/>
<path d="M11.1829 18.6314H18.4081C18.5824 18.6314 18.7494 18.5622 18.8726 18.439C18.9958 18.3158 19.065 18.1487 19.065 17.9745C19.065 17.8003 18.9958 17.6332 18.8726 17.5101C18.7494 17.3869 18.5824 17.3177 18.4081 17.3177H13.1534C12.2824 17.3177 11.447 16.9717 10.8311 16.3557C10.2152 15.7398 9.8692 14.9045 9.8692 14.0335C9.8692 13.1624 10.2152 12.3271 10.8311 11.7112C11.447 11.0953 12.2824 10.7493 13.1534 10.7493H14.4671V8.12189H17.0945V10.7493H20.3787V13.3766H13.1534C12.9792 13.3766 12.8121 13.4458 12.689 13.569C12.5658 13.6922 12.4966 13.8593 12.4966 14.0335C12.4966 14.2077 12.5658 14.3747 12.689 14.4979C12.8121 14.6211 12.9792 14.6903 13.1534 14.6903H18.4081C19.2792 14.6903 20.1145 15.0363 20.7304 15.6522C21.3463 16.2681 21.6924 17.1035 21.6924 17.9745C21.6924 18.8455 21.3463 19.6809 20.7304 20.2968C20.1145 20.9127 19.2792 21.2587 18.4081 21.2587H17.0945V23.8861H14.4671V21.2587H11.1829V18.6314Z" fill="#1C9C4D"/>
</svg>
