<svg width="20" height="21" viewBox="0 0 20 21" fill="none" xmlns="http://www.w3.org/2000/svg">
<path fill-rule="evenodd" clip-rule="evenodd" d="M0 4.92251C0 2.48218 1.97828 0.503906 4.4186 0.503906H15.5814C18.0217 0.503906 20 2.48218 20 4.92251V16.0853C20 18.5256 18.0217 20.5039 15.5814 20.5039H4.4186C1.97828 20.5039 0 18.5256 0 16.0853V4.92251ZM4.4186 1.89926C2.74891 1.89926 1.39535 3.25281 1.39535 4.92251V12.8295L3.74096 14.3932C5.21676 15.3771 7.18186 15.1825 8.43605 13.9283L11.5639 10.8004C12.8181 9.54623 14.7832 9.35165 16.259 10.3355L18.4739 11.8121C18.5191 11.8422 18.5627 11.8741 18.6047 11.9077V4.92251C18.6047 3.25281 17.2511 1.89926 15.5814 1.89926H4.4186ZM6.74428 9.57366C8.02866 9.57366 9.06986 8.53246 9.06986 7.24808C9.06986 5.96369 8.02866 4.9225 6.74428 4.9225C5.45989 4.9225 4.4187 5.96369 4.4187 7.24808C4.4187 8.53246 5.45989 9.57366 6.74428 9.57366Z" fill="#808080"/>
</svg>
