<svg width="20" height="19" viewBox="0 0 20 19" fill="none" xmlns="http://www.w3.org/2000/svg">
<path fill-rule="evenodd" clip-rule="evenodd" d="M11 0.5C11.8257 0.5 12.6255 0.611204 13.3851 0.819453C12.829 1.56819 12.5 2.49567 12.5 3.5C12.5 5.98528 14.5147 8 17 8C18.0043 8 18.9318 7.67098 19.6805 7.11486C19.8888 7.87449 20 8.67426 20 9.5C20 14.4706 15.9706 18.5 11 18.5H4C1.79086 18.5 0 16.7091 0 14.5V9.5C0 4.52944 4.02944 0.5 9 0.5H11ZM5.25 7.5C5.25 7.08579 5.58579 6.75 6 6.75H10C10.4142 6.75 10.75 7.08579 10.75 7.5C10.75 7.91421 10.4142 8.25 10 8.25H6C5.58579 8.25 5.25 7.91421 5.25 7.5ZM5.25 11.5C5.25 11.0858 5.58579 10.75 6 10.75H14C14.4142 10.75 14.75 11.0858 14.75 11.5C14.75 11.9142 14.4142 12.25 14 12.25H6C5.58579 12.25 5.25 11.9142 5.25 11.5ZM17 6.5C18.6569 6.5 20 5.15685 20 3.5C20 1.84315 18.6569 0.5 17 0.5C15.3431 0.5 14 1.84315 14 3.5C14 5.15685 15.3431 6.5 17 6.5Z" fill="white"/>
</svg>
