<svg width="12" height="13" viewBox="0 0 12 13" fill="none" xmlns="http://www.w3.org/2000/svg">
<path d="M6 0.291016C7.6302 0.291016 7.8336 0.297016 8.4732 0.327016C9.1122 0.357016 9.5472 0.457216 9.93 0.606016C10.326 0.758416 10.6596 0.964816 10.9932 1.29782C11.2983 1.59775 11.5344 1.96057 11.685 2.36102C11.8332 2.74322 11.934 3.17882 11.964 3.81782C11.9922 4.45742 12 4.66082 12 6.29102C12 7.92122 11.994 8.12462 11.964 8.76422C11.934 9.40322 11.8332 9.83822 11.685 10.221C11.5348 10.6217 11.2987 10.9846 10.9932 11.2842C10.6932 11.5892 10.3304 11.8253 9.93 11.976C9.5478 12.1242 9.1122 12.225 8.4732 12.255C7.8336 12.2832 7.6302 12.291 6 12.291C4.3698 12.291 4.1664 12.285 3.5268 12.255C2.8878 12.225 2.4528 12.1242 2.07 11.976C1.6694 11.8257 1.30652 11.5896 1.0068 11.2842C0.701644 10.9843 0.465559 10.6215 0.315 10.221C0.1662 9.83882 0.066 9.40322 0.036 8.76422C0.00779997 8.12462 0 7.92122 0 6.29102C0 4.66082 0.00599997 4.45742 0.036 3.81782C0.066 3.17822 0.1662 2.74382 0.315 2.36102C0.465142 1.96032 0.701282 1.59741 1.0068 1.29782C1.3066 0.992554 1.66946 0.756453 2.07 0.606016C2.4528 0.457216 2.8872 0.357016 3.5268 0.327016C4.1664 0.298816 4.3698 0.291016 6 0.291016ZM6 3.29102C5.20435 3.29102 4.44129 3.60709 3.87868 4.1697C3.31607 4.7323 3 5.49537 3 6.29102C3 7.08667 3.31607 7.84973 3.87868 8.41234C4.44129 8.97495 5.20435 9.29102 6 9.29102C6.79565 9.29102 7.55871 8.97495 8.12132 8.41234C8.68393 7.84973 9 7.08667 9 6.29102C9 5.49537 8.68393 4.7323 8.12132 4.1697C7.55871 3.60709 6.79565 3.29102 6 3.29102ZM9.9 3.14102C9.9 2.9421 9.82098 2.75134 9.68033 2.61069C9.53968 2.47003 9.34891 2.39102 9.15 2.39102C8.95109 2.39102 8.76032 2.47003 8.61967 2.61069C8.47902 2.75134 8.4 2.9421 8.4 3.14102C8.4 3.33993 8.47902 3.53069 8.61967 3.67135C8.76032 3.812 8.95109 3.89102 9.15 3.89102C9.34891 3.89102 9.53968 3.812 9.68033 3.67135C9.82098 3.53069 9.9 3.33993 9.9 3.14102ZM6 4.49102C6.47739 4.49102 6.93523 4.68066 7.27279 5.01822C7.61036 5.35579 7.8 5.81363 7.8 6.29102C7.8 6.76841 7.61036 7.22624 7.27279 7.56381C6.93523 7.90137 6.47739 8.09102 6 8.09102C5.52261 8.09102 5.06477 7.90137 4.72721 7.56381C4.38964 7.22624 4.2 6.76841 4.2 6.29102C4.2 5.81363 4.38964 5.35579 4.72721 5.01822C5.06477 4.68066 5.52261 4.49102 6 4.49102Z" fill="white"/>
</svg>
