<svg width="22" height="20" viewBox="0 0 22 20" fill="none" xmlns="http://www.w3.org/2000/svg">
<path d="M5 6.00784H3C1.89543 6.00784 1 6.90327 1 8.00784V17.0078C1 18.1124 1.89543 19.0078 3 19.0078H5C6.10457 19.0078 7 18.1124 7 17.0078V8.00784C7 6.90327 6.10457 6.00784 5 6.00784Z" stroke="#1E1E1E" stroke-width="1.5" stroke-linecap="round" stroke-linejoin="round"/>
<path d="M14.8769 19.0078H11.2111C10.4214 19.0078 9.64937 18.7741 8.9923 18.336L7.4453 17.3047C7.1671 17.1192 7 16.807 7 16.4727V8.27341C7 8.09938 7.04541 7.92837 7.13176 7.77727L11 1.00784H12.3287C14.3254 1.00784 15.5164 3.23321 14.4088 4.89459L13 7.00784H18.4384C19.7396 7.00784 20.6943 8.23062 20.3787 9.49291L18.7575 15.978C18.3123 17.7587 16.7124 19.0078 14.8769 19.0078Z" stroke="#1E1E1E" stroke-width="1.5" stroke-linecap="round" stroke-linejoin="round"/>
</svg>
