<svg width="21" height="5" viewBox="0 0 21 5" fill="none" xmlns="http://www.w3.org/2000/svg">
<path fill-rule="evenodd" clip-rule="evenodd" d="M0.204651 2.33463C0.204651 3.46384 1.12006 4.37925 2.24927 4.37925C3.37848 4.37925 4.29389 3.46384 4.29389 2.33463C4.29389 1.20542 3.37848 0.290009 2.24927 0.290009C1.12006 0.290008 0.204651 1.20542 0.204651 2.33463ZM10.4277 4.37925C9.29844 4.37925 8.38304 3.46384 8.38304 2.33463C8.38304 1.20542 9.29844 0.290008 10.4277 0.290009C11.5569 0.290009 12.4723 1.20542 12.4723 2.33463C12.4723 3.46384 11.5569 4.37925 10.4277 4.37925ZM18.6062 4.37925C17.477 4.37925 16.5615 3.46384 16.5615 2.33463C16.5615 1.20542 17.477 0.290008 18.6062 0.290009C19.7354 0.290009 20.6508 1.20542 20.6508 2.33463C20.6508 3.46384 19.7354 4.37925 18.6062 4.37925Z" fill="#1E1E1E"/>
</svg>
