<svg width="22" height="21" viewBox="0 0 22 21" fill="none" xmlns="http://www.w3.org/2000/svg">
<path fill-rule="evenodd" clip-rule="evenodd" d="M17.4657 0.934189C17.8658 1.0414 18.1033 1.45265 17.9961 1.85275L17.63 3.21877C17.5228 3.61887 17.1116 3.85631 16.7115 3.7491C16.3114 3.6419 16.0739 3.23064 16.1812 2.83054L16.5472 1.46452C16.6544 1.06442 17.0656 0.826983 17.4657 0.934189ZM13.3197 2.63037C12.6469 1.46503 11.0384 1.28323 10.1225 2.26899L3.67395 9.2091C3.89892 9.41315 4.09648 9.65511 4.25649 9.93227L6.75649 14.2624C6.91652 14.5396 7.02729 14.8317 7.09152 15.1286L16.3261 13.014C17.6378 12.7137 18.2846 11.2298 17.6118 10.0645L13.3197 2.63037ZM5.29929 14.9217L2.79929 10.5916C2.38507 9.87416 1.46769 9.62835 0.75025 10.0426C0.0328116 10.4568 -0.213001 11.3742 0.201212 12.0916L2.70121 16.4217C3.11543 17.1392 4.03281 17.385 4.75025 16.9708C5.46769 16.5566 5.7135 15.6392 5.29929 14.9217ZM11.1604 19.3413L9.25705 16.0445L12.3167 15.344L13.7585 17.8413C14.1727 18.5588 13.9269 19.4762 13.2095 19.8904C12.4921 20.3046 11.5747 20.0588 11.1604 19.3413ZM19.0997 5.76439C18.6996 5.65718 18.2884 5.89462 18.1812 6.29472C18.0739 6.69482 18.3114 7.10607 18.7115 7.21328L20.0775 7.5793C20.4776 7.68651 20.8889 7.44907 20.9961 7.04897C21.1033 6.64887 20.8658 6.23762 20.4657 6.13041L19.0997 5.76439Z" fill="white"/>
</svg>
