<svg width="15" height="15" viewBox="0 0 15 15" fill="none" xmlns="http://www.w3.org/2000/svg">
<path d="M5.50138 6.2659C6.2312 7.54805 7.29301 8.60987 8.57516 9.33968L9.26272 8.37679C9.37328 8.22197 9.53677 8.11303 9.72223 8.07061C9.90769 8.02818 10.1023 8.05521 10.2692 8.14657C11.3692 8.74774 12.584 9.10929 13.8337 9.20746C14.0288 9.22292 14.2108 9.31132 14.3436 9.45504C14.4764 9.59876 14.5501 9.78724 14.55 9.98291V13.4533C14.5501 13.6459 14.4787 13.8317 14.3497 13.9746C14.2206 14.1176 14.0432 14.2076 13.8516 14.2272C13.4394 14.27 13.024 14.291 12.6056 14.291C5.94783 14.291 0.550049 8.89324 0.550049 2.23546C0.550049 1.81702 0.571049 1.40168 0.613827 0.98946C0.633469 0.797891 0.723481 0.620421 0.866441 0.491398C1.0094 0.362375 1.19514 0.290974 1.38772 0.291016H4.85816C5.05382 0.290991 5.2423 0.364711 5.38602 0.497477C5.52974 0.630243 5.61815 0.812301 5.6336 1.00735C5.73178 2.25708 6.09333 3.47188 6.69449 4.5719C6.78585 4.73879 6.81288 4.93337 6.77046 5.11883C6.72803 5.3043 6.6191 5.46778 6.46427 5.57835L5.50138 6.2659ZM3.53983 5.7549L5.0176 4.69946C4.59821 3.7942 4.31088 2.83345 4.16438 1.84657H2.11338C2.10872 1.97568 2.10638 2.10557 2.10638 2.23546C2.1056 8.03457 6.80649 12.7355 12.6056 12.7355C12.7355 12.7355 12.8654 12.7331 12.9945 12.7277V10.6767C12.0076 10.5302 11.0469 10.2429 10.1416 9.82346L9.08616 11.3012C8.66123 11.1361 8.2485 10.9412 7.85105 10.7179L7.80594 10.6922C6.28039 9.82402 5.01704 8.56068 4.14883 7.03513L4.12316 6.99002C3.89987 6.59257 3.70494 6.17983 3.53983 5.7549Z" fill="#1E1E1E"/>
</svg>
