<svg width="19" height="19" viewBox="0 0 19 19" fill="none" xmlns="http://www.w3.org/2000/svg">
<path opacity="0.8" d="M14.9827 13.743L18.7778 17.5372L17.524 18.791L13.7298 14.9959C12.318 16.1276 10.562 16.7432 8.75263 16.7406C4.35054 16.7406 0.777832 13.1679 0.777832 8.76581C0.777832 4.36372 4.35054 0.791016 8.75263 0.791016C13.1547 0.791016 16.7274 4.36372 16.7274 8.76581C16.73 10.5752 16.1144 12.3312 14.9827 13.743ZM13.2052 13.0855C14.3298 11.929 14.9578 10.3789 14.9552 8.76581C14.9552 5.33842 12.1791 2.56319 8.75263 2.56319C5.32524 2.56319 2.55001 5.33842 2.55001 8.76581C2.55001 12.1923 5.32524 14.9684 8.75263 14.9684C10.3657 14.971 11.9159 14.343 13.0723 13.2184L13.2052 13.0855Z" fill="#1E1E1E"/>
</svg>
