<svg width="13" height="14" viewBox="0 0 13 14" fill="none" xmlns="http://www.w3.org/2000/svg">
<path d="M5.40757 0.368041C6.29261 0.18245 7.20648 0.182003 8.09171 0.366729C8.15068 0.75599 8.29662 1.12695 8.51869 1.45205C8.74076 1.77714 9.03324 2.04801 9.3744 2.24451C9.71529 2.44169 10.0962 2.55949 10.4889 2.58913C10.8816 2.61878 11.2759 2.55952 11.6426 2.41576C12.2451 3.09027 12.7014 3.88218 12.983 4.74166C12.6755 4.98742 12.4274 5.29932 12.257 5.65417C12.0866 6.00902 11.9984 6.39771 11.9988 6.79134C11.9988 7.62066 12.3833 8.3601 12.9843 8.84102C12.7011 9.69979 12.2441 10.4911 11.6419 11.1656C11.2754 11.022 10.8812 10.9628 10.4886 10.9924C10.096 11.022 9.7152 11.1398 9.3744 11.3369C9.03352 11.5333 8.74126 11.804 8.51932 12.1288C8.29738 12.4537 8.15145 12.8244 8.09236 13.2133C7.20741 13.3994 6.29354 13.4002 5.40823 13.216C5.34953 12.8263 5.20372 12.455 4.98164 12.1295C4.75956 11.8041 4.46693 11.5329 4.12553 11.3362C3.7846 11.1391 3.40362 11.0215 3.01093 10.9919C2.61824 10.9624 2.22395 11.0218 1.85737 11.1656C1.2548 10.4909 0.798411 9.69877 0.516937 8.83906C0.824254 8.59343 1.07231 8.28175 1.24268 7.92714C1.41306 7.57253 1.50138 7.1841 1.5011 6.79069C1.50142 6.39694 1.41299 6.00819 1.24238 5.65333C1.07176 5.29847 0.823355 4.98664 0.515625 4.741C0.798846 3.88224 1.25579 3.09096 1.85802 2.41641C2.22456 2.56007 2.61876 2.61928 3.01133 2.58963C3.40389 2.55998 3.78473 2.44225 4.12553 2.24517C4.46641 2.04873 4.75867 1.77803 4.98061 1.45318C5.20256 1.12833 5.34849 0.757665 5.40757 0.368697V0.368041ZM6.74997 8.75967C7.272 8.75967 7.77265 8.55229 8.14178 8.18316C8.51092 7.81403 8.71829 7.31337 8.71829 6.79134C8.71829 6.26931 8.51092 5.76866 8.14178 5.39953C7.77265 5.03039 7.272 4.82302 6.74997 4.82302C6.22793 4.82302 5.72728 5.03039 5.35815 5.39953C4.98902 5.76866 4.78164 6.26931 4.78164 6.79134C4.78164 7.31337 4.98902 7.81403 5.35815 8.18316C5.72728 8.55229 6.22793 8.75967 6.74997 8.75967Z" fill="#808080"/>
</svg>
