<svg width="23" height="22" viewBox="0 0 23 22" fill="none" xmlns="http://www.w3.org/2000/svg">
<path d="M8.07063 9.44225C7.49601 8.29525 6.30969 7.50784 4.93945 7.50784C3.00646 7.50784 1.43945 9.07485 1.43945 11.0078C1.43945 12.9408 3.00646 14.5078 4.93945 14.5078C6.30969 14.5078 7.49601 13.7204 8.07063 12.5734M8.07063 9.44225C8.30663 9.91334 8.43945 10.4451 8.43945 11.0078C8.43945 11.5706 8.30663 12.1023 8.07063 12.5734M8.07063 9.44225L14.8083 6.07343M8.07063 12.5734L14.8083 15.9423M14.8083 6.07343C15.3829 7.22044 16.5692 8.00784 17.9395 8.00784C19.8724 8.00784 21.4395 6.44084 21.4395 4.50784C21.4395 2.57485 19.8724 1.00784 17.9395 1.00784C16.0065 1.00784 14.4395 2.57485 14.4395 4.50784C14.4395 5.07061 14.5723 5.60235 14.8083 6.07343ZM14.8083 15.9423C14.5723 16.4133 14.4395 16.9451 14.4395 17.5078C14.4395 19.4408 16.0065 21.0078 17.9395 21.0078C19.8724 21.0078 21.4395 19.4408 21.4395 17.5078C21.4395 15.5748 19.8724 14.0078 17.9395 14.0078C16.5692 14.0078 15.3829 14.7952 14.8083 15.9423Z" stroke="#1E1E1E" stroke-width="1.5" stroke-linecap="round"/>
</svg>
