<svg width="22" height="23" viewBox="0 0 22 23" fill="none" xmlns="http://www.w3.org/2000/svg">
<path d="M8 14.5039C8 14.5039 9.125 15.5039 11 15.5039C12.875 15.5039 14 14.5039 14 14.5039M16 9.50391C16 10.0562 15.5523 10.5039 15 10.5039C14.4477 10.5039 14 10.0562 14 9.50391C14 8.95162 14.4477 8.50391 15 8.50391C15.5523 8.50391 16 8.95162 16 9.50391ZM21 11.5039C21 17.0268 16.5228 21.5039 11 21.5039C5.47715 21.5039 1 17.0268 1 11.5039C1 5.98106 5.47715 1.50391 11 1.50391C16.5228 1.50391 21 5.98106 21 11.5039ZM8 9.50391C8 10.0562 7.55228 10.5039 7 10.5039C6.44772 10.5039 6 10.0562 6 9.50391C6 8.95162 6.44772 8.50391 7 8.50391C7.55228 8.50391 8 8.95162 8 9.50391Z" stroke="#808080" stroke-width="1.5" stroke-linecap="round" stroke-linejoin="round"/>
</svg>
