<svg width="14" height="11" viewBox="0 0 14 11" fill="none" xmlns="http://www.w3.org/2000/svg">
<path d="M13.1146 1.49956C12.6565 1.70218 12.1708 1.83525 11.6734 1.89436C12.1976 1.58082 12.59 1.08737 12.7774 0.505962C12.2854 0.798762 11.746 1.00396 11.1838 1.11496C10.8062 0.710909 10.3056 0.44294 9.75997 0.352713C9.21433 0.262486 8.65416 0.355056 8.16655 0.616034C7.67895 0.877011 7.29123 1.29177 7.06366 1.79584C6.8361 2.2999 6.78145 2.86503 6.9082 3.40336C5.91046 3.35335 4.9344 3.09408 4.04337 2.64236C3.15234 2.19064 2.36627 1.55659 1.7362 0.781362C1.51317 1.16443 1.39597 1.5999 1.3966 2.04316C1.3966 2.91316 1.8394 3.68176 2.5126 4.13176C2.1142 4.11922 1.72458 4.01163 1.3762 3.81796V3.84916C1.37632 4.42858 1.57682 4.99013 1.9437 5.4386C2.31059 5.88706 2.82129 6.19485 3.3892 6.30976C3.01936 6.40998 2.63158 6.42476 2.2552 6.35296C2.41532 6.8517 2.7274 7.28788 3.14775 7.60043C3.5681 7.91297 4.07567 8.08624 4.5994 8.09596C4.07888 8.50476 3.4829 8.80695 2.84552 8.98526C2.20815 9.16358 1.54187 9.21451 0.884796 9.13516C2.03181 9.87282 3.36705 10.2644 4.7308 10.2632C9.3466 10.2632 11.8708 6.43936 11.8708 3.12316C11.8708 3.01516 11.8678 2.90596 11.863 2.79916C12.3543 2.44406 12.7784 2.00417 13.1152 1.50016L13.1146 1.49956Z" fill="white"/>
</svg>
