<svg width="12" height="11" viewBox="0 0 12 11" fill="none" xmlns="http://www.w3.org/2000/svg">
<path d="M11.7258 1.98977C12 3.05897 12 5.29097 12 5.29097C12 5.29097 12 7.52297 11.7258 8.59217C11.5734 9.18317 11.1276 9.64817 10.563 9.80537C9.5376 10.091 6 10.091 6 10.091C6 10.091 2.4642 10.091 1.437 9.80537C0.87 9.64577 0.4248 9.18137 0.2742 8.59217C1.78814e-08 7.52297 0 5.29097 0 5.29097C0 5.29097 1.78814e-08 3.05897 0.2742 1.98977C0.4266 1.39877 0.8724 0.933767 1.437 0.776567C2.4642 0.490967 6 0.490967 6 0.490967C6 0.490967 9.5376 0.490967 10.563 0.776567C11.13 0.936167 11.5752 1.40057 11.7258 1.98977ZM4.8 7.39097L8.4 5.29097L4.8 3.19097V7.39097Z" fill="white"/>
</svg>
